<svg xmlns="http://www.w3.org/2000/svg" viewBox="0 0 140 56"><path d="M71.85,10.72c0-6.23-3.8-8.73-9.92-8.73A30.26,30.26,0,0,0,53.14,3.3V9.13a19.45,19.45,0,0,1,8.28-1.81c2.66,0,4.14,1.3,4.14,3.46v1c-10,.28-14.29,4.59-14.29,9.86s3.29,8.22,9.86,8.22c3.86,0,6.3-.74,10.83-.74a58.45,58.45,0,0,1-.29-6.06c0-4.19.18-8,.18-12.36M65.33,23.25c-.23.79-1.31,1.42-3.57,1.42-2.44,0-4-1.42-4-3.46,0-3,2.67-4.59,7.83-4.76a55.58,55.58,0,0,1-.23,6.8M82,9.59c0-1.36,1.36-2.27,3.51-2.27a15.94,15.94,0,0,1,6.35,1.36V2.79A21.16,21.16,0,0,0,85.73,2c-6.35,0-10.21,3.18-10.21,8.28,0,7.76,11.17,7.08,11.17,11.56,0,1.76-1.53,2.9-4.54,2.9a21.91,21.91,0,0,1-6.51-1.08V29.2a23.65,23.65,0,0,0,6.91.91c7.37,0,10.55-4.25,10.55-8.68C93.1,13.27,82,13.67,82,9.59M108.47,2C101,2,95.66,7.27,95.66,15.82c0,9.93,5.72,14.29,13.71,14.29a24.32,24.32,0,0,0,6.92-1V23.59a16.5,16.5,0,0,1-6.63,1.19c-4.37,0-7.31-2.78-7.31-7.14v-.86h15.93a26.29,26.29,0,0,0,.27-3.73c0-6.3-3.06-11.06-10.08-11.06m2.38,9.87h-7.94c.45-2.73,2.21-4.71,5.21-4.71,2.79,0,4,1.47,4,3.51a1.09,1.09,0,0,1-1.24,1.2M29.33,16.05c0,9.35,5.44,14.12,13.61,14.12a23.46,23.46,0,0,0,4.7-.52V24.21a24.27,24.27,0,0,1-4.42.4c-4.31,0-7-2.44-7-8.56s2.72-8.39,6.92-8.39a14,14,0,0,1,4.53.62V2.5a20.44,20.44,0,0,0-4.7-.45c-8.73,0-13.61,5.44-13.61,14M134.59,1.9c-5.87,0-6.56,1.32-12.2,1.32V29.58h6.33V9.89c0-1.43,1.61-2.35,4.37-2.35q.41,0,.78,0a24.77,24.77,0,0,1,4.92.83V2.55a12.79,12.79,0,0,0-4.2-.65" fill="#007167"/><path d="M17.36,27.93c2.58,0,7.61.53,9.84,1.48-7-7.72-5.27-21.1,0-28.14-15,4.56-26,16-26,32.56,0,.36,0,.72,0,1.09,3.16-5.66,9.21-7,16.14-7" fill="#ec7700"/><path d="M36,54.39v-11h2.45v1A3.22,3.22,0,0,1,41.29,43a9.84,9.84,0,0,1,1.2.09v2.74a4.67,4.67,0,0,0-1.81-.3c-1.07,0-2,.42-2.06,1.34,0,1.87,0,4.72,0,7.53Z" fill="#ec7700"/><path d="M46.14,49.18v.35a2.83,2.83,0,0,0,3,3A6.91,6.91,0,0,0,52,52v2.31a10.13,10.13,0,0,1-2.88.41c-3.33,0-5.72-1.82-5.72-6,0-3.56,2.24-5.76,5.34-5.76,2.92,0,4.2,2,4.2,4.61a10.16,10.16,0,0,1-.12,1.56Zm3.54-2.06a.46.46,0,0,0,.52-.49c0-.85-.5-1.47-1.66-1.47a2.13,2.13,0,0,0-2.17,2Z" fill="#ec7700"/><path d="M58.66,43a8.94,8.94,0,0,1,2.55.33V45.8a6.66,6.66,0,0,0-2.65-.57c-.89,0-1.46.38-1.46.94,0,1.71,4.63,1.54,4.63,4.94,0,1.84-1.32,3.61-4.4,3.61a9.92,9.92,0,0,1-2.87-.37V52a8.92,8.92,0,0,0,2.71.45c1.25,0,1.89-.47,1.89-1.2,0-1.87-4.65-1.59-4.65-4.82C54.41,44.34,56,43,58.66,43" fill="#ec7700"/><path d="M66.88,40a1.57,1.57,0,0,1-3.14,0,1.57,1.57,0,0,1,3.14,0m-.14,3.33c-.07,3.19-.09,7.77-.09,11.06H64V43.34Z" fill="#ec7700"/><path d="M78.46,36.8c0,2.88-.1,5.57-.1,8.67v8.81c-1.6,0-2.62.38-4.17.38-2.89,0-5.27-2.06-5.27-5.91S71.47,43,73.83,43a3,3,0,0,1,2,.51V36.8ZM74.37,52.43c.87,0,1.42-.37,1.42-.75V46c0-.43-.61-.74-1.42-.74-1.65,0-2.6,1.11-2.6,3.57s1,3.63,2.6,3.63" fill="#ec7700"/><path d="M83.5,49.18v.35a2.82,2.82,0,0,0,3,3A6.91,6.91,0,0,0,89.31,52v2.31a10.15,10.15,0,0,1-2.89.41c-3.32,0-5.71-1.82-5.71-6C80.71,45.21,83,43,86.05,43c2.92,0,4.2,2,4.2,4.61a10.16,10.16,0,0,1-.12,1.56ZM87,47.12a.46.46,0,0,0,.52-.49c0-.85-.5-1.47-1.66-1.47a2.13,2.13,0,0,0-2.17,2Z" fill="#ec7700"/><path d="M95,46.32V54.4h-2.6V43.58c2.31,0,2.6-.55,5-.55,2.12,0,4,1,4,3.95V54.4h-2.6V47.29c0-1.42-.8-1.94-2.05-1.94s-1.79.38-1.79,1" fill="#ec7700"/><path d="M109.51,52.41a10.68,10.68,0,0,0,1.84-.16v2.26a9.16,9.16,0,0,1-2,.21c-3.4,0-5.67-2-5.67-5.88,0-3.56,2-5.82,5.67-5.82a8.66,8.66,0,0,1,2,.18v2.41a5.8,5.8,0,0,0-1.89-.26c-1.75,0-2.88.94-2.88,3.49s1.13,3.57,2.93,3.57" fill="#ec7700"/><path d="M116.25,40a1.57,1.57,0,1,1-1.54-1.51A1.47,1.47,0,0,1,116.25,40m-.15,3.33C116,46.53,116,51.11,116,54.4h-2.62V43.34Z" fill="#ec7700"/><path d="M124.28,47.1v-.43c0-.89-.62-1.44-1.73-1.44a8.1,8.1,0,0,0-3.44.76V43.56a12.36,12.36,0,0,1,3.65-.55c2.56,0,4.14,1,4.14,3.64,0,1.82-.07,3.4-.07,5.15a24.56,24.56,0,0,0,.12,2.52c-1.89,0-2.91.31-4.51.31-2.75,0-4.11-1.27-4.11-3.42s1.79-4,6-4.11m0,1.93c-2.15.07-3.26.74-3.26,2a1.49,1.49,0,0,0,1.68,1.44c.94,0,1.39-.26,1.49-.6a26.18,26.18,0,0,0,.09-2.83" fill="#ec7700"/><path d="M132.45,36.8c0,3-.09,5.53-.09,8.83v8.76h-2.57V36.8Z" fill="#ec7700"/></svg>